# xmcd
#
# Track frame offsets:
#	150
#	12397
#	25725
#	41812
#	57050
#	74645
#	90472
#	104402
#	117122
#	137255
#	151910
#	163750
#	175817
#	189095
#	204565
#
# Disc length: 2934 seconds
#
# Revision: 1
# Processed by: cddbd v1.5.1PL2 Copyright (c) Steve Scherf et al.
# Submitted via: audiograbber 1.83.01
#
DISCID=be0b740f
DTITLE=Earl King - New Orleans Blues
DYEAR=2005
DGENRE=Blues
TTITLE0=Mother's Love
TTITLE1=Part of Me
TTITLE2=Am I Your Dog
TTITLE3=Fallin'
TTITLE4=I'm Gonna Keep on Trying
TTITLE5=Love Look Out for Me
TTITLE6=Mama and Papa
TTITLE7=Medieval Days
TTITLE8=Some People
TTITLE9=Street Parade
TTITLE10=Do the Grind
TTITLE11=Real McCoy
TTITLE12=Up on the Hill
TTITLE13=This Is What I Call Living
TTITLE14=You Make Me Feel Good
EXTD=
EXTT0=
EXTT1=
EXTT2=
EXTT3=
EXTT4=
EXTT5=
EXTT6=
EXTT7=
EXTT8=
EXTT9=
EXTT10=
EXTT11=
EXTT12=
EXTT13=
EXTT14=
PLAYORDER=
